<?xml version="1.0" standalone="no"?>
<!DOCTYPE svg PUBLIC "-//W3C//DTD SVG 20010904//EN"
 "http://www.w3.org/TR/2001/REC-SVG-20010904/DTD/svg10.dtd">
<svg version="1.0" xmlns="http://www.w3.org/2000/svg"
 width="1000.000000pt" height="1000.000000pt" viewBox="0 0 1000.000000 1000.000000"
 preserveAspectRatio="xMidYMid meet">
<metadata>
Created by potrace 1.11, written by Peter Selinger 2001-2013
</metadata>
<g transform="translate(0.000000,1000.000000) scale(0.100000,-0.100000)"
fill="#000000" stroke="none">
<path d="M5109 7298 c-67 -68 -127 -121 -133 -120 -6 2 -8 1 -4 -3 10 -10 -24
-45 -36 -38 -6 3 -8 3 -4 -2 10 -11 -681 -697 -694 -689 -6 4 -8 2 -4 -4 6
-11 -167 -192 -185 -192 -5 0 -9 -4 -9 -9 0 -11 -511 -521 -522 -521 -4 0 -8
-4 -8 -9 0 -11 -90 -101 -101 -101 -5 0 -9 -4 -9 -9 0 -4 -43 -51 -96 -102
-53 -52 -110 -109 -127 -126 -16 -18 -34 -30 -40 -26 -6 3 -7 2 -4 -4 8 -13
-47 -66 -58 -56 -4 5 -5 3 -2 -3 7 -12 -2168 -2186 -2177 -2177 -3 4 -6 1 -6
-5 0 -7 -115 -127 -256 -267 l-256 -255 214 0 214 0 224 223 c122 122 227 221
231 220 5 -2 8 1 6 6 -3 13 479 492 487 483 4 -4 6 -2 5 3 -5 17 87 108 101
100 9 -5 11 -4 6 4 -7 11 652 678 667 673 4 -1 7 3 7 9 0 13 51 55 63 51 5 -1
6 2 3 6 -9 14 31 55 45 46 7 -4 9 -3 5 4 -8 14 72 94 86 86 6 -4 8 -3 5 3 -3
5 21 38 54 72 47 48 64 60 74 51 10 -8 15 -8 21 1 4 7 3 9 -4 5 -6 -3 -13 -2
-16 3 -8 12 74 92 87 84 5 -3 7 -1 4 4 -5 8 116 143 128 143 4 0 85 82 85 85
0 12 85 83 93 78 6 -3 7 -1 4 4 -7 12 99 119 114 115 5 -1 8 1 7 5 -3 12 26
53 37 53 6 0 16 9 23 20 7 12 18 18 24 14 6 -4 8 -3 5 3 -8 12 987 1006 997
995 4 -4 6 -2 4 4 -4 15 104 124 117 117 5 -4 7 -2 2 2 -4 5 39 55 95 111 86
86 105 101 118 91 13 -10 13 -10 3 3 -10 13 -7 21 17 44 17 15 35 24 41 20 8
-4 9 -3 5 4 -7 12 50 82 66 82 5 0 6 -4 3 -10 -3 -5 -3 -10 2 -10 4 0 8 -16 8
-35 0 -19 -3 -35 -7 -35 -4 0 -5 -7 -1 -17 3 -9 6 -31 6 -50 -1 -18 -2 -51 -2
-74 -1 -29 -5 -38 -13 -34 -7 4 -6 1 2 -7 12 -10 15 -37 14 -128 -1 -63 -3
-128 -4 -145 -1 -16 -1 -32 0 -35 1 -3 1 -120 0 -260 0 -140 0 -264 0 -275 0
-11 1 -59 3 -108 1 -48 -1 -87 -5 -87 -4 0 -4 -10 0 -22 4 -13 6 -36 5 -53 -4
-39 -4 -29 -3 -195 0 -80 0 -152 0 -160 -1 -8 0 -44 2 -78 2 -35 0 -66 -5 -69
-4 -2 -4 -9 -1 -15 10 -16 11 -168 1 -168 -5 0 -5 -5 -2 -11 4 -6 7 -36 6 -67
0 -31 0 -75 0 -97 1 -58 0 -117 -1 -140 -1 -11 0 -52 1 -92 1 -39 -2 -76 -5
-82 -4 -6 -4 -11 1 -11 4 0 7 -82 5 -182 -1 -101 -2 -199 -1 -218 1 -19 1 -71
0 -115 0 -44 0 -98 0 -120 1 -59 0 -117 -1 -140 -1 -11 0 -52 1 -92 1 -39 -2
-76 -5 -82 -4 -6 -4 -11 1 -11 10 0 9 -312 -1 -328 -4 -7 -4 -12 1 -12 4 0 8
-59 7 -130 l-1 -130 181 0 c1265 -1 2201 2 2241 5 76 7 168 17 185 20 8 1 33
6 55 9 22 3 51 8 65 11 14 3 36 7 50 10 37 7 242 64 265 74 58 25 85 32 96 25
8 -4 10 -3 5 4 -4 7 -2 12 3 12 6 0 13 0 16 1 13 2 267 131 313 158 29 17 58
29 63 25 5 -3 8 -1 7 4 -2 5 46 44 105 86 105 74 197 148 264 214 19 18 38 30
45 26 6 -4 8 -3 5 3 -3 5 25 43 64 84 38 41 102 117 141 169 40 52 77 100 83
105 6 6 14 18 18 28 4 11 12 15 18 11 7 -4 9 -3 6 4 -4 5 13 43 37 84 79 130
182 351 216 463 7 22 15 45 19 50 3 6 6 15 7 20 1 6 13 55 28 110 14 55 28
114 31 130 2 17 10 57 16 89 6 32 11 72 11 87 1 16 4 29 7 29 4 0 5 19 3 41
-3 32 -1 40 8 34 9 -6 11 -4 5 5 -6 10 -10 269 -4 290 1 3 1 9 0 14 -1 4 4 14
10 22 9 12 9 13 -3 9 -11 -5 -15 6 -16 52 0 32 -3 67 -5 78 -3 11 -8 45 -12
75 -12 82 -12 79 -29 167 -20 100 -85 305 -131 413 -18 44 -30 80 -27 80 4 0
2 4 -4 8 -18 12 -45 72 -38 84 4 6 3 8 -3 5 -6 -4 -17 8 -24 26 -13 32 -39 74
-127 212 -50 78 -189 252 -236 297 -25 24 -28 31 -16 40 13 8 12 9 -2 5 -11
-4 -41 19 -92 68 -42 40 -88 81 -102 90 -14 9 -22 21 -18 27 4 6 3 9 -2 5 -12
-7 -125 79 -116 88 4 4 3 5 -3 4 -12 -3 -75 33 -75 44 0 4 -7 7 -15 7 -7 0
-19 8 -24 18 -6 9 -11 14 -11 11 0 -4 -50 22 -112 57 -62 35 -116 64 -121 64
-4 0 -5 5 -1 12 4 6 3 8 -4 4 -12 -7 -62 13 -62 26 0 5 -4 7 -9 3 -5 -3 -34 6
-63 19 -69 32 -257 96 -281 96 -11 0 -15 4 -11 12 4 7 3 8 -4 4 -7 -4 -40 0
-74 9 -230 57 -284 60 -1023 60 l-650 0 0 -125 0 -125 566 -2 c616 -3 776 -8
798 -26 12 -10 13 -9 7 2 -6 10 -4 12 10 7 11 -3 50 -10 88 -16 38 -6 105 -20
150 -31 44 -11 87 -21 94 -21 6 -1 12 -5 12 -9 0 -5 7 -6 15 -3 8 4 15 1 15
-6 0 -6 4 -9 9 -6 5 3 51 -10 102 -30 52 -19 106 -40 122 -46 15 -5 27 -14 27
-20 0 -5 4 -7 8 -4 5 3 19 -1 33 -8 143 -76 184 -100 187 -107 2 -5 9 -9 15
-9 10 0 155 -96 167 -110 3 -3 14 -13 26 -21 55 -37 123 -102 117 -112 -3 -6
-1 -7 5 -3 15 9 155 -130 146 -146 -4 -6 -3 -8 3 -5 11 7 44 -26 93 -93 14
-18 34 -45 46 -59 112 -139 241 -385 314 -601 17 -48 61 -201 60 -208 0 -1 2
-12 5 -25 7 -31 15 -75 21 -122 3 -22 9 -65 14 -95 9 -57 6 -446 -3 -490 -3
-14 -8 -43 -11 -65 -7 -52 -51 -255 -56 -262 -3 -4 -6 -14 -15 -50 -4 -18 -12
-33 -17 -33 -5 0 -7 -4 -4 -8 13 -22 -116 -312 -196 -439 -112 -181 -289 -388
-443 -519 -81 -69 -212 -164 -224 -164 -6 0 -11 -4 -11 -9 0 -5 -8 -11 -17
-15 -10 -3 -34 -15 -53 -27 -19 -12 -60 -35 -90 -52 -30 -16 -60 -34 -67 -39
-7 -5 -17 -7 -23 -3 -5 3 -10 2 -10 -3 0 -8 -138 -72 -165 -76 -5 -1 -14 -4
-20 -8 -8 -5 -32 -12 -105 -33 -3 -1 -32 -10 -65 -20 -33 -10 -74 -19 -91 -20
-17 -1 -36 -5 -41 -8 -11 -7 -45 -13 -112 -22 -18 -2 -36 -6 -39 -9 -3 -3 -11
-1 -19 5 -10 9 -13 8 -13 -1 0 -7 -15 -11 -42 -10 -24 1 -45 1 -48 0 -12 -6
-74 -9 -185 -9 -66 0 -169 -1 -230 -1 -60 -1 -114 -2 -120 -2 -5 1 -57 1 -115
2 -58 0 -143 1 -190 1 -84 -1 -110 -1 -320 0 -58 1 -177 0 -265 0 -267 -3
-628 -3 -675 -1 -19 0 -37 3 -39 6 -11 11 -7 624 4 624 5 0 4 4 -3 9 -15 9
-15 20 0 39 6 6 6 12 1 12 -5 0 -9 29 -8 65 0 36 4 65 10 65 7 0 7 3 0 8 -14
10 -14 283 0 274 7 -4 6 -1 -1 9 -12 16 -12 29 -1 47 5 6 4 12 0 12 -5 0 -9
29 -8 65 0 36 4 65 10 65 7 0 6 3 0 8 -14 10 -14 464 0 474 6 5 6 8 0 8 -14 0
-14 382 0 392 7 5 6 8 -1 8 -12 0 -13 38 -1 56 3 6 3 14 -1 18 -11 12 -9 76 3
76 7 0 6 3 0 8 -10 6 -11 20 -5 40 1 4 1 12 0 17 -8 30 -5 95 4 95 8 0 8 3 1
8 -12 8 -13 41 -3 58 4 6 4 14 0 18 -11 12 -9 76 3 76 7 0 6 3 0 8 -10 6 -11
20 -5 40 1 4 1 12 0 17 -8 30 -5 95 4 95 8 0 8 3 1 8 -12 8 -13 41 -3 58 4 6
4 14 0 18 -11 12 -9 76 3 76 7 0 6 3 0 8 -10 6 -11 20 -5 40 1 4 1 12 0 17 -8
30 -5 95 4 95 8 0 8 3 1 8 -12 8 -13 41 -3 58 4 6 4 14 0 18 -11 12 -9 116 3
116 7 0 7 3 0 8 -12 9 -14 322 -2 322 4 0 5 6 0 13 -12 19 -11 107 1 107 7 0
8 3 1 8 -14 9 -14 175 0 184 6 5 6 8 -2 8 -14 0 -11 23 7 45 11 13 11 16 0 13
-10 -2 -14 12 -15 59 -1 55 0 61 14 50 14 -11 14 -10 1 7 -11 14 -15 53 -15
177 0 100 4 159 10 159 5 0 5 4 -2 8 -6 4 -10 22 -9 40 1 17 1 32 0 32 -1 0
-57 -55 -125 -122z"/>
<path d="M5279 6053 c-13 -16 -12 -17 4 -4 9 7 17 15 17 17 0 8 -8 3 -21 -13z"/>
<path d="M3675 5400 c-3 -5 -1 -10 4 -10 6 0 11 5 11 10 0 6 -2 10 -4 10 -3 0
-8 -4 -11 -10z"/>
<path d="M1913 3505 c0 -8 4 -12 9 -9 5 3 6 10 3 15 -9 13 -12 11 -12 -6z"/>
<path d="M1519 3253 c-13 -16 -12 -17 4 -4 9 7 17 15 17 17 0 8 -8 3 -21 -13z"/>
<path d="M9109 3243 c-13 -16 -12 -17 4 -4 16 13 21 21 13 21 -2 0 -10 -8 -17
-17z"/>
<path d="M5374 3120 c0 -13 4 -16 10 -10 7 7 7 13 0 20 -6 6 -10 3 -10 -10z"/>
<path d="M1595 3080 c3 -5 8 -10 11 -10 2 0 4 5 4 10 0 6 -5 10 -11 10 -5 0
-7 -4 -4 -10z"/>
<path d="M720 3040 c-9 -6 -10 -10 -3 -10 6 0 15 5 18 10 8 12 4 12 -15 0z"/>
<path d="M5387 2999 c7 -7 15 -10 18 -7 3 3 -2 9 -12 12 -14 6 -15 5 -6 -5z"/>
<path d="M8825 3000 c-3 -6 1 -7 9 -4 18 7 21 14 7 14 -6 0 -13 -4 -16 -10z"/>
<path d="M8670 2879 c0 -5 5 -7 10 -4 6 3 10 8 10 11 0 2 -4 4 -10 4 -5 0 -10
-5 -10 -11z"/>
<path d="M8110 2600 c0 -5 5 -10 11 -10 5 0 7 5 4 10 -3 6 -8 10 -11 10 -2 0
-4 -4 -4 -10z"/>
</g>
</svg>
